Plot:
In a dystopian future, Dredd, the most famous judge (a cop with instant field
judiciary powers) is convicted for a crime he did not commit while his murderous
counterpart escapes.

SCREENSHOTS:

 
http://lookpic.com/O/i2/1082/eALMLMn0.png
 
http://lookpic.com/O/i2/1289/2QNpWVL9.png
 
http://lookpic.com/O/i2/636/YmR2yB0a.png

SUBTITLES:
ENGLISH, POLISH others from other BluRay releases on subscene.com

General
Complete name                  : Judge_Dredd_1995_720p_BDRip_QEBS9_AAC20_MP4-FASM.mp4
Format                         : MPEG-4
Format profile                 : Base Media
Codec ID                       : isom
File size                      : 1.33 GiB
Duration                       : 1h 36mn
Overall bit rate mode          : Variable
Overall bit rate               : 1 977 Kbps
Encoded date                   : UTC 2012-11-08 06:00:07
Tagged date                    : UTC 2012-11-08 06:00:07

Video
ID                             : 1
Format                         : AVC
Format/Info                    : Advanced Video Codec
Format profile                 : High@L3.1
Format settings, CABAC         : Yes
Format settings, ReFrames      : 5 frames
Codec ID                       : avc1
Codec ID/Info                  : Advanced Video Coding
Duration                       : 1h 36mn
Bit rate                       : 1 887 Kbps
Maximum bit rate               : 15.1 Mbps
Width                          : 1 280 pixels
Height                         : 544 pixels
Display aspect ratio           : 2.35:1
Frame rate mode                : Constant
Frame rate                     : 23.976 fps
Color space                    : YUV
Chroma subsampling             : 4:2:0
Bit depth                      : 8 bits
Scan type                      : Progressive
Bits/(Pixel*Frame)             : 0.113
Stream size                    : 1.27 GiB (95%)
Title                          : 1280x544.264#trackID=1:fps=23.976 - Imported with GPAC 0.5.0-rev4065
Writing library                : FASM Quality Enhancer Bitrate Squeezer 9.0 (c)2012 Fachman
Encoded date                   : UTC 2012-11-08 06:00:07
Tagged date                    : UTC 2012-11-08 06:00:38
Color primaries                : BT.709
Transfer characteristics       : BT.709
Matrix coefficients            : BT.709

Audio
ID                             : 2
Format                         : AAC
Format/Info                    : Advanced Audio Codec
Format profile                 : LC
Codec ID                       : 40
Duration                       : 1h 36mn
Bit rate mode                  : Variable
Bit rate                       : 86.2 Kbps
Maximum bit rate               : 128 Kbps
Channel(s)                     : 2 channels
Channel positions              : Front: L R
Sampling rate                  : 48.0 KHz
Compression mode               : Lossy
Stream size                    : 59.3 MiB (4%)
Language                       : English
Encoded date                   : UTC 2012-11-08 06:00:34
Tagged date                    : UTC 2012-11-08 06:00:38